<svg width="256" height="256" viewBox="0 0 256 256" fill="none" xmlns="http://www.w3.org/2000/svg">
<path d="M111.503 25.925C121.653 19.8183 134.347 19.8183 144.497 25.925L205.161 62.4228C214.781 68.2104 220.665 78.616 220.665 89.8428V165.157C220.665 176.384 214.781 186.79 205.161 192.577L144.497 229.075C134.347 235.182 121.653 235.182 111.503 229.075L50.8385 192.577C41.2186 186.79 35.3353 176.384 35.3353 165.157V89.8428C35.3353 78.616 41.2186 68.2104 50.8385 62.4228L111.503 25.925Z" fill="#002D4E"/>
<path d="M115.589 45.499C123.22 40.8878 132.78 40.8878 140.411 45.499L190.89 75.9981C198.082 80.3441 202.478 88.1358 202.478 96.5397V159.46C202.478 167.864 198.082 175.656 190.89 180.002L140.411 210.501C132.78 215.112 123.22 215.112 115.589 210.501L65.1105 180.002C57.9175 175.656 53.5218 167.864 53.5218 159.46V96.5397C53.5218 88.1358 57.9176 80.3441 65.1105 75.9981L115.589 45.499Z" fill="#011F37"/>
<mask id="path-3-outside-1_12_359" maskUnits="userSpaceOnUse" x="75" y="112.581" width="105" height="75" fill="black">
<rect fill="white" x="75" y="112.581" width="105" height="75"/>
<path fill-rule="evenodd" clip-rule="evenodd" d="M174.124 149.937C173.9 153.86 171.764 157.444 168.382 159.502L133.8 180.547C129.968 182.879 125.156 182.879 121.324 180.547L86.7419 159.502C83.361 157.445 81.2249 153.862 81 149.94C81.2242 146.017 83.3605 142.433 86.7421 140.375L121.324 119.33C125.156 116.998 129.969 116.998 133.801 119.33L168.382 140.375C171.763 142.432 173.899 146.015 174.124 149.937Z"/>
</mask>
<path fill-rule="evenodd" clip-rule="evenodd" d="M174.124 149.937C173.9 153.86 171.764 157.444 168.382 159.502L133.8 180.547C129.968 182.879 125.156 182.879 121.324 180.547L86.7419 159.502C83.361 157.445 81.2249 153.862 81 149.94C81.2242 146.017 83.3605 142.433 86.7421 140.375L121.324 119.33C125.156 116.998 129.969 116.998 133.801 119.33L168.382 140.375C171.763 142.432 173.899 146.015 174.124 149.937Z" fill="#FAC400"/>
<path d="M174.124 149.937L179.116 150.223L179.132 149.937L179.116 149.651L174.124 149.937ZM168.382 159.502L170.981 163.773L170.981 163.773L168.382 159.502ZM133.8 180.547L131.201 176.276L131.201 176.276L133.8 180.547ZM121.324 180.547L118.724 184.818L118.724 184.818L121.324 180.547ZM86.7419 159.502L89.3412 155.231L89.3412 155.231L86.7419 159.502ZM81 149.94L76.0081 149.654L75.9918 149.94L76.0082 150.226L81 149.94ZM86.7421 140.375L89.3414 144.646L89.3414 144.646L86.7421 140.375ZM121.324 119.33L123.923 123.601L123.923 123.601L121.324 119.33ZM133.801 119.33L131.201 123.601L131.201 123.601L133.801 119.33ZM168.382 140.375L170.982 136.104L170.982 136.104L168.382 140.375ZM169.132 149.652C169.002 151.94 167.755 154.03 165.783 155.231L170.981 163.773C175.772 160.858 178.798 155.781 179.116 150.223L169.132 149.652ZM165.783 155.231L131.201 176.276L136.4 184.818L170.981 163.773L165.783 155.231ZM131.201 176.276C128.966 177.636 126.158 177.636 123.923 176.276L118.724 184.818C124.153 188.122 130.971 188.122 136.4 184.818L131.201 176.276ZM123.923 176.276L89.3412 155.231L84.1426 163.773L118.724 184.818L123.923 176.276ZM89.3412 155.231C87.3693 154.031 86.123 151.941 85.9918 149.653L76.0082 150.226C76.3269 155.783 79.3527 160.858 84.1426 163.773L89.3412 155.231ZM85.9919 150.225C86.1226 147.937 87.369 145.847 89.3414 144.646L84.1428 136.104C79.3519 139.019 76.3258 144.096 76.0081 149.654L85.9919 150.225ZM89.3414 144.646L123.923 123.601L118.725 115.059L84.1428 136.104L89.3414 144.646ZM123.923 123.601C126.158 122.241 128.966 122.241 131.201 123.601L136.4 115.059C130.971 111.755 124.153 111.755 118.725 115.059L123.923 123.601ZM131.201 123.601L165.783 144.646L170.982 136.104L136.4 115.059L131.201 123.601ZM165.783 144.646C167.755 145.846 169.001 147.936 169.132 150.224L179.116 149.651C178.797 144.094 175.771 139.019 170.982 136.104L165.783 144.646Z" fill="#011F37" mask="url(#path-3-outside-1_12_359)"/>
<path d="M145.369 165.944C146.035 165.534 146.893 166.014 146.893 166.796V168.324C146.893 168.671 146.713 168.994 146.417 169.176L135.818 175.698C135.152 176.108 134.294 175.629 134.294 174.847V173.318C134.294 172.971 134.474 172.649 134.77 172.467L145.369 165.944Z" fill="#011F37"/>
<path d="M166.699 153.316C167.366 152.916 168.214 153.396 168.214 154.174V155.718C168.214 156.069 168.03 156.395 167.728 156.575L164.883 158.283C164.216 158.683 163.368 158.202 163.368 157.425V155.881C163.368 155.53 163.552 155.204 163.854 155.023L166.699 153.316Z" fill="#011F37"/>
<mask id="path-7-outside-2_12_359" maskUnits="userSpaceOnUse" x="75" y="90.2905" width="105" height="75" fill="black">
<rect fill="white" x="75" y="90.2905" width="105" height="75"/>
<path fill-rule="evenodd" clip-rule="evenodd" d="M174.124 127.647C173.9 131.57 171.764 135.154 168.382 137.212L133.8 158.257C129.968 160.589 125.156 160.589 121.324 158.257L86.7419 137.212C83.361 135.154 81.2249 131.571 81 127.649C81.2242 123.726 83.3605 120.142 86.7421 118.085L121.324 97.0395C125.156 94.7075 129.969 94.7075 133.801 97.0395L168.382 118.085C171.763 120.142 173.899 123.725 174.124 127.647Z"/>
</mask>
<path fill-rule="evenodd" clip-rule="evenodd" d="M174.124 127.647C173.9 131.57 171.764 135.154 168.382 137.212L133.8 158.257C129.968 160.589 125.156 160.589 121.324 158.257L86.7419 137.212C83.361 135.154 81.2249 131.571 81 127.649C81.2242 123.726 83.3605 120.142 86.7421 118.085L121.324 97.0395C125.156 94.7075 129.969 94.7075 133.801 97.0395L168.382 118.085C171.763 120.142 173.899 123.725 174.124 127.647Z" fill="#FAC400"/>
<path d="M174.124 127.647L179.116 127.932L179.132 127.646L179.116 127.36L174.124 127.647ZM168.382 137.212L170.981 141.483L170.981 141.483L168.382 137.212ZM133.8 158.257L131.201 153.985L131.201 153.985L133.8 158.257ZM121.324 158.257L118.724 162.528L118.724 162.528L121.324 158.257ZM86.7419 137.212L84.1426 141.483L84.1426 141.483L86.7419 137.212ZM81 127.649L76.0081 127.364L75.9918 127.65L76.0082 127.936L81 127.649ZM86.7421 118.085L89.3414 122.356L89.3414 122.356L86.7421 118.085ZM121.324 97.0395L123.923 101.311L123.923 101.311L121.324 97.0395ZM133.801 97.0395L131.201 101.311L131.201 101.311L133.801 97.0395ZM168.382 118.085L170.982 113.813L170.982 113.813L168.382 118.085ZM169.132 127.362C169.002 129.649 167.755 131.74 165.783 132.94L170.981 141.483C175.772 138.567 178.798 133.491 179.116 127.932L169.132 127.362ZM165.783 132.94L131.201 153.985L136.4 162.528L170.981 141.483L165.783 132.94ZM131.201 153.985C128.966 155.346 126.158 155.346 123.923 153.985L118.724 162.528C124.153 165.831 130.971 165.831 136.4 162.528L131.201 153.985ZM123.923 153.985L89.3412 132.94L84.1426 141.483L118.724 162.528L123.923 153.985ZM89.3412 132.94C87.3693 131.74 86.123 129.65 85.9918 127.363L76.0082 127.936C76.3269 133.493 79.3527 138.568 84.1426 141.483L89.3412 132.94ZM85.9919 127.935C86.1226 125.647 87.369 123.556 89.3414 122.356L84.1428 113.813C79.3519 116.729 76.3258 121.805 76.0081 127.364L85.9919 127.935ZM89.3414 122.356L123.923 101.311L118.725 92.7682L84.1428 113.813L89.3414 122.356ZM123.923 101.311C126.158 99.9504 128.966 99.9504 131.201 101.311L136.4 92.7682C130.971 89.4646 124.153 89.4646 118.725 92.7682L123.923 101.311ZM131.201 101.311L165.783 122.356L170.982 113.813L136.4 92.7682L131.201 101.311ZM165.783 122.356C167.755 123.556 169.001 125.646 169.132 127.933L179.116 127.36C178.797 121.803 175.771 116.728 170.982 113.813L165.783 122.356Z" fill="#011F37" mask="url(#path-7-outside-2_12_359)"/>
<path d="M145.369 143.654C146.035 143.244 146.893 143.723 146.893 144.505V146.034C146.893 146.381 146.713 146.703 146.417 146.885L135.818 153.408C135.152 153.818 134.294 153.338 134.294 152.556V151.028C134.294 150.681 134.474 150.358 134.77 150.176L145.369 143.654Z" fill="#011F37"/>
<path d="M166.699 131.026C167.366 130.626 168.214 131.106 168.214 131.883V133.427C168.214 133.779 168.03 134.104 167.728 134.285L164.883 135.992C164.216 136.392 163.368 135.912 163.368 135.135V133.59C163.368 133.239 163.552 132.914 163.854 132.733L166.699 131.026Z" fill="#011F37"/>
<mask id="path-11-outside-3_12_359" maskUnits="userSpaceOnUse" x="75" y="68" width="105" height="75" fill="black">
<rect fill="white" x="75" y="68" width="105" height="75"/>
<path fill-rule="evenodd" clip-rule="evenodd" d="M174.124 105.356C173.9 109.279 171.764 112.863 168.382 114.921L133.8 135.966C129.968 138.298 125.156 138.298 121.324 135.966L86.7419 114.921C83.361 112.864 81.2249 109.281 81 105.359C81.2242 101.436 83.3605 97.8519 86.7421 95.794L121.324 74.749C125.156 72.417 129.969 72.417 133.801 74.749L168.382 95.794C171.763 97.8515 173.899 101.434 174.124 105.356Z"/>
</mask>
<path fill-rule="evenodd" clip-rule="evenodd" d="M174.124 105.356C173.9 109.279 171.764 112.863 168.382 114.921L133.8 135.966C129.968 138.298 125.156 138.298 121.324 135.966L86.7419 114.921C83.361 112.864 81.2249 109.281 81 105.359C81.2242 101.436 83.3605 97.8519 86.7421 95.794L121.324 74.749C125.156 72.417 129.969 72.417 133.801 74.749L168.382 95.794C171.763 97.8515 173.899 101.434 174.124 105.356Z" fill="#FAC400"/>
<path d="M174.124 105.356L179.116 105.642L179.132 105.356L179.116 105.07L174.124 105.356ZM168.382 114.921L170.981 119.192L170.981 119.192L168.382 114.921ZM133.8 135.966L131.201 131.695L131.201 131.695L133.8 135.966ZM121.324 135.966L118.724 140.237L118.724 140.237L121.324 135.966ZM86.7419 114.921L84.1426 119.192L84.1426 119.192L86.7419 114.921ZM81 105.359L76.0081 105.073L75.9918 105.359L76.0082 105.645L81 105.359ZM86.7421 95.794L84.1428 91.5228L86.7421 95.794ZM121.324 74.749L123.923 79.0202L123.923 79.0202L121.324 74.749ZM133.801 74.749L131.201 79.0202L131.201 79.0202L133.801 74.749ZM168.382 95.794L170.982 91.5228L170.982 91.5228L168.382 95.794ZM169.132 105.071C169.002 107.359 167.755 109.449 165.783 110.65L170.981 119.192C175.772 116.277 178.798 111.2 179.116 105.642L169.132 105.071ZM165.783 110.65L131.201 131.695L136.4 140.237L170.981 119.192L165.783 110.65ZM131.201 131.695C128.966 133.055 126.158 133.055 123.923 131.695L118.724 140.237C124.153 143.541 130.971 143.541 136.4 140.237L131.201 131.695ZM123.923 131.695L89.3412 110.65L84.1426 119.192L118.724 140.237L123.923 131.695ZM89.3412 110.65C87.3693 109.45 86.123 107.36 85.9918 105.072L76.0082 105.645C76.3269 111.202 79.3527 116.277 84.1426 119.192L89.3412 110.65ZM85.9919 105.644C86.1226 103.356 87.369 101.266 89.3414 100.065L84.1428 91.5228C79.3519 94.4383 76.3258 99.5149 76.0081 105.073L85.9919 105.644ZM89.3414 100.065L123.923 79.0202L118.725 70.4777L84.1428 91.5228L89.3414 100.065ZM123.923 79.0202C126.158 77.6599 128.966 77.6599 131.201 79.0202L136.4 70.4777C130.971 67.1741 124.153 67.1741 118.725 70.4777L123.923 79.0202ZM131.201 79.0202L165.783 100.065L170.982 91.5228L136.4 70.4777L131.201 79.0202ZM165.783 100.065C167.755 101.265 169.001 103.355 169.132 105.643L179.116 105.07C178.797 99.5128 175.771 94.4377 170.982 91.5228L165.783 100.065Z" fill="#011F37" mask="url(#path-11-outside-3_12_359)"/>
<path d="M145.369 121.363C146.035 120.953 146.893 121.433 146.893 122.215V123.743C146.893 124.09 146.713 124.413 146.417 124.595L135.818 131.117C135.152 131.527 134.294 131.048 134.294 130.266V128.737C134.294 128.39 134.474 128.068 134.77 127.886L145.369 121.363Z" fill="#011F37"/>
<path d="M166.699 108.735C167.366 108.335 168.214 108.815 168.214 109.593V111.137C168.214 111.488 168.03 111.814 167.728 111.994L164.883 113.702C164.216 114.102 163.368 113.621 163.368 112.844V111.3C163.368 110.949 163.552 110.623 163.854 110.442L166.699 108.735Z" fill="#011F37"/>
<mask id="path-15-inside-4_12_359" fill="white">
<path fill-rule="evenodd" clip-rule="evenodd" d="M171.886 99.2837C171.03 100.342 169.989 101.262 168.792 101.991L134.21 123.036C130.378 125.368 125.565 125.368 121.733 123.036L87.1517 101.991C85.7719 101.151 84.5995 100.057 83.6797 98.7903C84.5352 97.7318 85.5763 96.8119 86.7737 96.0833L121.355 75.0383C125.187 72.7063 130 72.7063 133.832 75.0383L168.414 96.0833C169.794 96.9229 170.966 98.0166 171.886 99.2837Z"/>
</mask>
<path fill-rule="evenodd" clip-rule="evenodd" d="M171.886 99.2837C171.03 100.342 169.989 101.262 168.792 101.991L134.21 123.036C130.378 125.368 125.565 125.368 121.733 123.036L87.1517 101.991C85.7719 101.151 84.5995 100.057 83.6797 98.7903C84.5352 97.7318 85.5763 96.8119 86.7737 96.0833L121.355 75.0383C125.187 72.7063 130 72.7063 133.832 75.0383L168.414 96.0833C169.794 96.9229 170.966 98.0166 171.886 99.2837Z" fill="#E3AA06"/>
<path d="M171.886 99.2837L172.664 99.9122L173.145 99.3163L172.695 98.6962L171.886 99.2837ZM168.792 101.991L169.312 102.845L169.312 102.845L168.792 101.991ZM134.21 123.036L133.69 122.181L133.69 122.181L134.21 123.036ZM121.733 123.036L121.214 123.89L121.214 123.89L121.733 123.036ZM87.1517 101.991L87.6715 101.136L87.1517 101.991ZM83.6797 98.7903L82.9019 98.1617L82.4203 98.7577L82.8704 99.3778L83.6797 98.7903ZM86.7737 96.0833L86.2538 95.229L86.2538 95.229L86.7737 96.0833ZM121.355 75.0383L121.875 75.8925L121.875 75.8925L121.355 75.0383ZM133.832 75.0383L133.312 75.8925L133.312 75.8925L133.832 75.0383ZM168.414 96.0833L168.934 95.229L168.934 95.229L168.414 96.0833ZM171.108 98.6551C170.324 99.6253 169.37 100.468 168.272 101.136L169.312 102.845C170.609 102.056 171.737 101.059 172.664 99.9122L171.108 98.6551ZM168.272 101.136L133.69 122.181L134.73 123.89L169.312 102.845L168.272 101.136ZM133.69 122.181C130.178 124.319 125.766 124.319 122.253 122.181L121.214 123.89C125.365 126.416 130.579 126.416 134.73 123.89L133.69 122.181ZM122.253 122.181L87.6715 101.136L86.6318 102.845L121.214 123.89L122.253 122.181ZM87.6715 101.136C86.4066 100.367 85.3321 99.3643 84.4889 98.2028L82.8704 99.3778C83.8669 100.75 85.1372 101.935 86.6318 102.845L87.6715 101.136ZM84.4574 99.4189C85.2415 98.4487 86.1958 97.6055 87.2935 96.9375L86.2538 95.229C84.9569 96.0183 83.8288 97.0149 82.9019 98.1617L84.4574 99.4189ZM87.2935 96.9375L121.875 75.8925L120.836 74.184L86.2538 95.229L87.2935 96.9375ZM121.875 75.8925C125.388 73.7549 129.8 73.7549 133.312 75.8925L134.352 74.184C130.201 71.6577 124.987 71.6577 120.836 74.184L121.875 75.8925ZM133.312 75.8925L167.894 96.9375L168.934 95.229L134.352 74.184L133.312 75.8925ZM167.894 96.9375C169.159 97.7073 170.233 98.7097 171.077 99.8711L172.695 98.6962C171.699 97.3235 170.428 96.1386 168.934 95.229L167.894 96.9375Z" fill="white" fill-opacity="0.3" mask="url(#path-15-inside-4_12_359)"/>
<mask id="path-17-outside-5_12_359" maskUnits="userSpaceOnUse" x="45.6422" y="136.636" width="163.823" height="99.5296" fill="black">
<rect fill="white" x="45.6422" y="136.636" width="163.823" height="99.5296"/>
<path d="M172.275 206.142L171.106 198.22C171.106 198.22 106.29 231.384 67.0145 164.637C77.3917 211.785 137.154 226.856 172.275 206.142Z"/>
<path d="M161.404 189.253C161.404 189.253 89.4586 221.05 65.5538 146C65.2199 152.683 65.7513 158.898 67.0145 164.637C106.29 231.384 171.106 198.22 171.106 198.22L172.275 206.142L175.688 223.377L188.07 199.105L200.452 174.833L149.976 178.771L161.404 189.253Z"/>
</mask>
<path d="M172.275 206.142L171.106 198.22C171.106 198.22 106.29 231.384 67.0145 164.637C77.3917 211.785 137.154 226.856 172.275 206.142Z" fill="#72A100"/>
<path d="M161.404 189.253C161.404 189.253 89.4586 221.05 65.5538 146C65.2199 152.683 65.7513 158.898 67.0145 164.637C106.29 231.384 171.106 198.22 171.106 198.22L172.275 206.142L175.688 223.377L188.07 199.105L200.452 174.833L149.976 178.771L161.404 189.253Z" fill="#97C200"/>
<path d="M172.275 206.142L168.812 206.652C168.821 206.709 168.83 206.766 168.841 206.822L172.275 206.142ZM171.106 198.22L174.569 197.709C174.404 196.593 173.712 195.625 172.709 195.108C171.707 194.592 170.516 194.59 169.512 195.104L171.106 198.22ZM175.688 223.377C173.026 225.649 177.214 226.527 179.122 222.697C179.122 222.697 179.122 222.697 179.122 222.697C179.122 222.697 179.122 222.697 179.122 222.697C179.122 222.697 179.122 222.697 179.122 222.697C179.122 222.696 179.122 222.696 179.122 222.696C179.121 222.695 179.121 222.694 179.121 222.692C179.12 222.688 179.118 222.68 179.115 222.663C179.108 222.629 179.095 222.562 179.068 222.427C179.015 222.158 178.908 221.619 178.695 220.542C178.268 218.388 177.415 214.079 175.708 205.462L168.841 206.822C170.548 215.439 171.402 219.748 171.828 221.902C172.042 222.979 172.148 223.518 172.202 223.787C172.228 223.922 172.242 223.989 172.248 224.023C172.252 224.04 172.253 224.048 172.254 224.052C172.255 224.054 172.255 224.056 172.255 224.056C172.255 224.056 172.255 224.056 172.255 224.056C172.255 224.057 172.255 224.057 172.255 224.056C172.255 224.056 172.255 224.056 172.255 224.056C172.255 224.056 172.255 224.056 172.255 224.056C174.163 220.227 178.35 221.104 175.688 223.377ZM175.737 205.631L174.569 197.709L167.644 198.73L168.812 206.652L175.737 205.631ZM171.106 198.22C169.512 195.104 169.513 195.103 169.515 195.103C169.515 195.103 169.516 195.102 169.516 195.102C169.516 195.102 169.515 195.102 169.513 195.103C169.51 195.105 169.502 195.109 169.491 195.114C169.469 195.126 169.431 195.144 169.379 195.17C169.273 195.222 169.108 195.302 168.886 195.406C168.441 195.614 167.768 195.918 166.889 196.287C165.131 197.026 162.554 198.02 159.332 199.015C152.876 201.008 143.907 202.984 133.797 202.958C113.785 202.909 88.9757 195.058 70.031 162.862L63.998 166.412C84.3289 200.963 111.565 209.903 133.78 209.958C144.784 209.986 154.473 207.841 161.398 205.703C164.867 204.632 167.66 203.556 169.6 202.741C170.57 202.334 171.328 201.991 171.852 201.746C172.114 201.623 172.318 201.525 172.46 201.455C172.531 201.421 172.587 201.393 172.627 201.373C172.647 201.363 172.664 201.354 172.676 201.348C172.682 201.345 172.687 201.342 172.691 201.34C172.693 201.339 172.696 201.338 172.697 201.338C172.699 201.336 172.701 201.336 171.106 198.22ZM65.5538 146L72.2236 143.876C71.1963 140.65 68.0084 138.622 64.6517 139.058C61.2951 139.495 58.7314 142.27 58.5625 145.651L65.5538 146ZM161.404 189.253L164.233 195.656C166.394 194.701 167.927 192.72 168.311 190.389C168.694 188.058 167.876 185.691 166.135 184.094L161.404 189.253ZM149.976 178.771L149.431 171.793C146.653 172.009 144.267 173.854 143.359 176.489C142.45 179.123 143.19 182.046 145.244 183.93L149.976 178.771ZM200.452 174.833L206.688 178.014C207.839 175.757 207.681 173.054 206.275 170.947C204.869 168.84 202.433 167.657 199.908 167.854L200.452 174.833ZM175.688 223.377L168.822 224.737C169.401 227.662 171.771 229.899 174.725 230.31C177.679 230.72 180.569 229.214 181.924 226.558L175.688 223.377ZM172.275 206.142L179.141 204.782C178.7 202.556 177.208 200.681 175.137 199.754C173.066 198.826 170.673 198.959 168.718 200.112L172.275 206.142ZM188.07 199.105L194.306 202.286L194.306 202.286L188.07 199.105ZM67.0145 164.637L60.1781 166.141L60.1781 166.141L67.0145 164.637ZM58.8839 148.124C65.2251 168.033 74.957 181.434 86.4176 190.022C97.8454 198.585 110.466 201.969 121.966 202.754C133.422 203.536 143.938 201.757 151.512 199.833C155.32 198.866 158.439 197.848 160.63 197.061C161.727 196.668 162.595 196.331 163.205 196.085C163.51 195.962 163.75 195.862 163.923 195.789C164.009 195.753 164.079 195.723 164.13 195.701C164.156 195.689 164.178 195.68 164.195 195.672C164.204 195.669 164.211 195.665 164.218 195.663C164.221 195.661 164.225 195.66 164.226 195.659C164.23 195.657 164.233 195.656 161.404 189.253C158.574 182.851 158.577 182.849 158.579 182.848C158.58 182.848 158.582 182.847 158.583 182.847C158.585 182.846 158.586 182.845 158.586 182.845C158.586 182.845 158.581 182.847 158.573 182.851C158.555 182.859 158.521 182.873 158.47 182.895C158.369 182.938 158.203 183.007 157.975 183.099C157.519 183.282 156.818 183.555 155.901 183.884C154.064 184.544 151.376 185.423 148.065 186.264C141.403 187.957 132.439 189.437 122.92 188.787C113.446 188.14 103.598 185.401 94.8127 178.818C86.0604 172.26 77.8349 161.492 72.2236 143.876L58.8839 148.124ZM166.135 184.094L154.708 173.613L145.244 183.93L156.672 194.412L166.135 184.094ZM150.52 185.75L200.997 181.811L199.908 167.854L149.431 171.793L150.52 185.75ZM194.217 171.652L181.835 195.924L194.306 202.286L206.688 178.014L194.217 171.652ZM181.835 195.924L169.453 220.196L181.924 226.558L194.306 202.286L181.835 195.924ZM168.718 200.112C153.178 209.278 131.631 210.728 112.636 204.216C93.7931 197.756 78.4051 183.824 73.8509 163.132L60.1781 166.141C66.0011 192.598 85.683 209.775 108.096 217.459C130.357 225.091 156.251 223.72 175.831 212.171L168.718 200.112ZM73.8509 163.132C72.7283 158.032 72.2407 152.442 72.5451 146.349L58.5625 145.651C58.1992 152.924 58.7743 159.763 60.1781 166.141L73.8509 163.132ZM165.408 207.502L168.822 224.737L182.555 222.017L179.141 204.782L165.408 207.502Z" fill="#011F37" mask="url(#path-17-outside-5_12_359)"/>
<path d="M172.275 206.142L171.106 198.22C171.106 198.22 106.29 231.384 67.0145 164.637C77.3917 211.785 137.154 226.856 172.275 206.142Z" fill="#72A100"/>
<path d="M161.404 189.253C161.404 189.253 89.4586 221.05 65.5538 146C65.2199 152.683 65.7513 158.898 67.0145 164.637C106.29 231.384 171.106 198.22 171.106 198.22L172.275 206.142L175.688 223.377L188.07 199.105L200.452 174.833L149.976 178.771L161.404 189.253Z" fill="#97C200"/>
</svg>
