<svg width="256" height="256" viewBox="0 0 256 256" fill="none" xmlns="http://www.w3.org/2000/svg">
<path d="M111.337 9.92496C121.487 3.81832 134.181 3.81832 144.331 9.92496L218.708 54.6728C228.328 60.4604 234.212 70.866 234.212 82.0928V173.907C234.212 185.134 228.328 195.54 218.708 201.327L144.331 246.075C134.181 252.182 121.487 252.182 111.337 246.075L36.9599 201.327C27.34 195.54 21.4566 185.134 21.4566 173.907V82.0928C21.4566 70.866 27.34 60.4604 36.9599 54.6728L111.337 9.92496Z" fill="#002D4E"/>
<path d="M115.423 32.7546C123.055 28.1434 132.614 28.1434 140.245 32.7546L201.745 69.9129C208.938 74.2589 213.334 82.0506 213.334 90.4545V166.693C213.334 175.097 208.938 182.889 201.745 187.235L140.245 224.393C132.614 229.005 123.055 229.005 115.423 224.393L53.9231 187.235C46.7302 182.889 42.3344 175.097 42.3344 166.693V90.4545C42.3344 82.0506 46.7302 74.2589 53.9231 69.9129L115.423 32.7546Z" fill="#011F37"/>
<mask id="path-3-outside-1_12_359" maskUnits="userSpaceOnUse" x="68.8564" y="111.31" width="117" height="85" fill="black">
<rect fill="white" x="68.8564" y="111.31" width="117" height="85"/>
<path fill-rule="evenodd" clip-rule="evenodd" d="M180.806 153.491V153.968C180.806 158.156 178.623 162.041 175.045 164.219L133.57 189.459C129.738 191.791 124.925 191.791 121.093 189.459L79.618 164.219C76.0566 162.052 73.8765 158.192 73.8564 154.026V153.55C73.8564 149.362 76.0402 145.477 79.6181 143.299L121.093 118.059C124.925 115.727 129.738 115.727 133.57 118.059L175.045 143.299C178.606 145.466 180.786 149.325 180.806 153.491Z"/>
</mask>
<path fill-rule="evenodd" clip-rule="evenodd" d="M180.806 153.491V153.968C180.806 158.156 178.623 162.041 175.045 164.219L133.57 189.459C129.738 191.791 124.925 191.791 121.093 189.459L79.618 164.219C76.0566 162.052 73.8765 158.192 73.8564 154.026V153.55C73.8564 149.362 76.0402 145.477 79.6181 143.299L121.093 118.059C124.925 115.727 129.738 115.727 133.57 118.059L175.045 143.299C178.606 145.466 180.786 149.325 180.806 153.491Z" fill="#FAC400"/>
<path d="M180.806 153.491H185.806V153.479L185.806 153.467L180.806 153.491ZM175.045 164.219L177.644 168.49L177.644 168.49L175.045 164.219ZM133.57 189.459L130.97 185.188L130.97 185.188L133.57 189.459ZM121.093 189.459L123.692 185.188L123.692 185.188L121.093 189.459ZM79.618 164.219L77.0187 168.49L77.0187 168.49L79.618 164.219ZM73.8564 154.026H68.8564V154.038L68.8565 154.05L73.8564 154.026ZM79.6181 143.299L77.0188 139.028L77.0188 139.028L79.6181 143.299ZM121.093 118.059L123.692 122.33L123.692 122.33L121.093 118.059ZM133.57 118.059L130.97 122.33L130.97 122.33L133.57 118.059ZM175.045 143.299L177.644 139.028L177.644 139.028L175.045 143.299ZM175.806 153.491V153.968H185.806V153.491H175.806ZM175.806 153.968C175.806 156.411 174.532 158.677 172.445 159.948L177.644 168.49C182.713 165.406 185.806 159.901 185.806 153.968H175.806ZM172.445 159.948L130.97 185.188L136.169 193.73L177.644 168.49L172.445 159.948ZM130.97 185.188C128.735 186.548 125.928 186.548 123.692 185.188L118.494 193.73C123.922 197.034 130.74 197.034 136.169 193.73L130.97 185.188ZM123.692 185.188L82.2173 159.948L77.0187 168.49L118.494 193.73L123.692 185.188ZM82.2173 159.948C80.1398 158.683 78.8681 156.432 78.8564 154.002L68.8565 154.05C68.885 159.952 71.9734 165.42 77.0187 168.49L82.2173 159.948ZM78.8564 154.026V153.55H68.8564V154.026H78.8564ZM78.8564 153.55C78.8564 151.107 80.1303 148.841 82.2174 147.57L77.0188 139.028C71.9501 142.112 68.8564 147.617 68.8564 153.55H78.8564ZM82.2174 147.57L123.692 122.33L118.494 113.788L77.0188 139.028L82.2174 147.57ZM123.692 122.33C125.928 120.97 128.735 120.97 130.97 122.33L136.169 113.788C130.74 110.484 123.922 110.484 118.494 113.788L123.692 122.33ZM130.97 122.33L172.446 147.57L177.644 139.028L136.169 113.788L130.97 122.33ZM172.446 147.57C174.523 148.835 175.794 151.086 175.806 153.516L185.806 153.467C185.777 147.565 182.689 142.098 177.644 139.028L172.446 147.57Z" fill="#011F37" mask="url(#path-3-outside-1_12_359)"/>
<path d="M147.999 171.995C148.665 171.585 149.523 172.064 149.523 172.846V174.948C149.523 175.295 149.342 175.618 149.047 175.8L136.583 183.47C135.917 183.88 135.059 183.4 135.059 182.618V180.516C135.059 180.169 135.239 179.846 135.535 179.664L147.999 171.995Z" fill="#011F37"/>
<path d="M172.485 157.502C173.151 157.102 173.999 157.582 173.999 158.359V160.477C173.999 160.829 173.815 161.154 173.514 161.335L169.951 163.472C169.284 163.872 168.436 163.392 168.436 162.615V160.497C168.436 160.146 168.62 159.82 168.922 159.64L172.485 157.502Z" fill="#011F37"/>
<mask id="path-7-outside-2_12_359" maskUnits="userSpaceOnUse" x="68.8564" y="85.7211" width="117" height="85" fill="black">
<rect fill="white" x="68.8564" y="85.7211" width="117" height="85"/>
<path fill-rule="evenodd" clip-rule="evenodd" d="M180.806 127.902V128.379C180.806 132.567 178.623 136.452 175.045 138.63L133.57 163.87C129.738 166.202 124.925 166.202 121.093 163.87L79.618 138.63C76.0566 136.463 73.8765 132.603 73.8564 128.437V127.961C73.8564 123.773 76.0402 119.887 79.6181 117.71L121.093 92.4701C124.925 90.1381 129.738 90.1381 133.57 92.4701L175.045 117.71C178.606 119.877 180.786 123.736 180.806 127.902Z"/>
</mask>
<path fill-rule="evenodd" clip-rule="evenodd" d="M180.806 127.902V128.379C180.806 132.567 178.623 136.452 175.045 138.63L133.57 163.87C129.738 166.202 124.925 166.202 121.093 163.87L79.618 138.63C76.0566 136.463 73.8765 132.603 73.8564 128.437V127.961C73.8564 123.773 76.0402 119.887 79.6181 117.71L121.093 92.4701C124.925 90.1381 129.738 90.1381 133.57 92.4701L175.045 117.71C178.606 119.877 180.786 123.736 180.806 127.902Z" fill="#FAC400"/>
<path d="M180.806 127.902H185.806V127.89L185.806 127.877L180.806 127.902ZM175.045 138.63L177.644 142.901L177.644 142.901L175.045 138.63ZM133.57 163.87L130.97 159.599L130.97 159.599L133.57 163.87ZM121.093 163.87L123.692 159.599L123.692 159.599L121.093 163.87ZM79.618 138.63L77.0187 142.901L77.0187 142.901L79.618 138.63ZM73.8564 128.437H68.8564V128.449L68.8565 128.461L73.8564 128.437ZM79.6181 117.71L77.0188 113.439L77.0188 113.439L79.6181 117.71ZM121.093 92.4701L123.692 96.7413L123.692 96.7413L121.093 92.4701ZM133.57 92.4701L130.97 96.7413L130.97 96.7413L133.57 92.4701ZM175.045 117.71L177.644 113.439L177.644 113.439L175.045 117.71ZM175.806 127.902V128.379H185.806V127.902H175.806ZM175.806 128.379C175.806 130.822 174.532 133.088 172.445 134.359L177.644 142.901C182.713 139.816 185.806 134.312 185.806 128.379H175.806ZM172.445 134.359L130.97 159.599L136.169 168.141L177.644 142.901L172.445 134.359ZM130.97 159.599C128.735 160.959 125.928 160.959 123.692 159.599L118.494 168.141C123.922 171.445 130.74 171.445 136.169 168.141L130.97 159.599ZM123.692 159.599L82.2173 134.359L77.0187 142.901L118.494 168.141L123.692 159.599ZM82.2173 134.359C80.1398 133.094 78.8681 130.843 78.8564 128.413L68.8565 128.461C68.885 134.363 71.9734 139.831 77.0187 142.901L82.2173 134.359ZM78.8564 128.437V127.961H68.8564V128.437H78.8564ZM78.8564 127.961C78.8564 125.518 80.1303 123.251 82.2174 121.981L77.0188 113.439C71.9501 116.523 68.8564 122.028 68.8564 127.961H78.8564ZM82.2174 121.981L123.692 96.7413L118.494 88.1988L77.0188 113.439L82.2174 121.981ZM123.692 96.7413C125.928 95.381 128.735 95.381 130.97 96.7413L136.169 88.1988C130.74 84.8952 123.922 84.8952 118.494 88.1988L123.692 96.7413ZM130.97 96.7413L172.446 121.981L177.644 113.439L136.169 88.1988L130.97 96.7413ZM172.446 121.981C174.523 123.245 175.794 125.497 175.806 127.926L185.806 127.877C185.777 121.976 182.689 116.509 177.644 113.439L172.446 121.981Z" fill="#011F37" mask="url(#path-7-outside-2_12_359)"/>
<path d="M147.999 146.405C148.665 145.995 149.523 146.475 149.523 147.257V149.359C149.523 149.706 149.342 150.029 149.047 150.211L136.583 157.88C135.917 158.291 135.059 157.811 135.059 157.029V154.927C135.059 154.58 135.239 154.257 135.535 154.075L147.999 146.405Z" fill="#011F37"/>
<path d="M172.485 131.913C173.151 131.513 173.999 131.993 173.999 132.77V134.888C173.999 135.239 173.815 135.565 173.514 135.746L169.951 137.883C169.284 138.283 168.436 137.803 168.436 137.026V134.908C168.436 134.557 168.62 134.231 168.922 134.05L172.485 131.913Z" fill="#011F37"/>
<mask id="path-11-outside-3_12_359" maskUnits="userSpaceOnUse" x="68.8564" y="60.132" width="117" height="85" fill="black">
<rect fill="white" x="68.8564" y="60.132" width="117" height="85"/>
<path fill-rule="evenodd" clip-rule="evenodd" d="M180.806 102.313V102.79C180.806 106.978 178.623 110.863 175.045 113.041L133.57 138.281C129.738 140.613 124.925 140.613 121.093 138.281L79.618 113.041C76.0566 110.873 73.8765 107.014 73.8564 102.848V102.372C73.8564 98.1836 76.0402 94.2983 79.6181 92.121L121.093 66.881C124.925 64.549 129.738 64.549 133.57 66.881L175.045 92.121C178.606 94.2881 180.786 98.1471 180.806 102.313Z"/>
</mask>
<path fill-rule="evenodd" clip-rule="evenodd" d="M180.806 102.313V102.79C180.806 106.978 178.623 110.863 175.045 113.041L133.57 138.281C129.738 140.613 124.925 140.613 121.093 138.281L79.618 113.041C76.0566 110.873 73.8765 107.014 73.8564 102.848V102.372C73.8564 98.1836 76.0402 94.2983 79.6181 92.121L121.093 66.881C124.925 64.549 129.738 64.549 133.57 66.881L175.045 92.121C178.606 94.2881 180.786 98.1471 180.806 102.313Z" fill="#FAC400"/>
<path d="M180.806 102.313H185.806V102.301L185.806 102.288L180.806 102.313ZM175.045 113.041L177.644 117.312L177.644 117.312L175.045 113.041ZM133.57 138.281L130.97 134.009L130.97 134.009L133.57 138.281ZM121.093 138.281L123.692 134.009L123.692 134.009L121.093 138.281ZM79.618 113.041L77.0187 117.312L77.0187 117.312L79.618 113.041ZM73.8564 102.848H68.8564V102.86L68.8565 102.872L73.8564 102.848ZM79.6181 92.121L82.2174 96.3922L82.2174 96.3922L79.6181 92.121ZM121.093 66.881L123.692 71.1523L123.692 71.1523L121.093 66.881ZM133.57 66.881L130.97 71.1523L130.97 71.1523L133.57 66.881ZM175.045 92.121L177.644 87.8497L177.644 87.8497L175.045 92.121ZM175.806 102.313V102.79H185.806V102.313H175.806ZM175.806 102.79C175.806 105.233 174.532 107.499 172.445 108.769L177.644 117.312C182.713 114.227 185.806 108.723 185.806 102.79H175.806ZM172.445 108.769L130.97 134.009L136.169 142.552L177.644 117.312L172.445 108.769ZM130.97 134.009C128.735 135.37 125.928 135.37 123.692 134.009L118.494 142.552C123.922 145.856 130.74 145.856 136.169 142.552L130.97 134.009ZM123.692 134.009L82.2173 108.769L77.0187 117.312L118.494 142.552L123.692 134.009ZM82.2173 108.769C80.1398 107.505 78.8681 105.254 78.8564 102.824L68.8565 102.872C68.885 108.774 71.9734 114.242 77.0187 117.312L82.2173 108.769ZM78.8564 102.848V102.372H68.8564V102.848H78.8564ZM78.8564 102.372C78.8564 99.9288 80.1303 97.6624 82.2174 96.3922L77.0188 87.8497C71.9501 90.9343 68.8564 96.4385 68.8564 102.372H78.8564ZM82.2174 96.3922L123.692 71.1523L118.494 62.6098L77.0188 87.8497L82.2174 96.3922ZM123.692 71.1523C125.928 69.7919 128.735 69.7919 130.97 71.1523L136.169 62.6098C130.74 59.3061 123.922 59.3061 118.494 62.6098L123.692 71.1523ZM130.97 71.1523L172.446 96.3922L177.644 87.8497L136.169 62.6098L130.97 71.1523ZM172.446 96.3922C174.523 97.6564 175.794 99.9075 175.806 102.337L185.806 102.288C185.777 96.3867 182.689 90.9198 177.644 87.8497L172.446 96.3922Z" fill="#011F37" mask="url(#path-11-outside-3_12_359)"/>
<path d="M147.999 120.816C148.665 120.406 149.523 120.886 149.523 121.668V123.77C149.523 124.117 149.342 124.44 149.047 124.622L136.583 132.291C135.917 132.701 135.059 132.222 135.059 131.44V129.338C135.059 128.991 135.239 128.668 135.535 128.486L147.999 120.816Z" fill="#011F37"/>
<path d="M172.485 106.324C173.151 105.924 173.999 106.404 173.999 107.181V109.299C173.999 109.65 173.815 109.976 173.514 110.157L169.951 112.294C169.284 112.694 168.436 112.214 168.436 111.437V109.319C168.436 108.968 168.62 108.642 168.922 108.461L172.485 106.324Z" fill="#011F37"/>
<mask id="path-15-inside-4_12_359" fill="white">
<path fill-rule="evenodd" clip-rule="evenodd" d="M178.516 95.6031C177.679 96.6141 176.67 97.4944 175.515 98.1969L134.04 123.437C130.208 125.769 125.395 125.769 121.563 123.437L80.0885 98.1969C78.727 97.3684 77.5674 96.2926 76.6532 95.0469C77.4908 94.0359 78.5001 93.1556 79.6545 92.4531L121.13 67.2131C124.962 64.8811 129.774 64.8811 133.606 67.2131L175.081 92.4531C176.443 93.2816 177.602 94.3574 178.516 95.6031Z"/>
</mask>
<path fill-rule="evenodd" clip-rule="evenodd" d="M178.516 95.6031C177.679 96.6141 176.67 97.4944 175.515 98.1969L134.04 123.437C130.208 125.769 125.395 125.769 121.563 123.437L80.0885 98.1969C78.727 97.3684 77.5674 96.2926 76.6532 95.0469C77.4908 94.0359 78.5001 93.1556 79.6545 92.4531L121.13 67.2131C124.962 64.8811 129.774 64.8811 133.606 67.2131L175.081 92.4531C176.443 93.2816 177.602 94.3574 178.516 95.6031Z" fill="#E3AA06"/>
<path d="M178.516 95.6031L179.287 96.2411L179.784 95.6404L179.323 95.0115L178.516 95.6031ZM175.515 98.1969L176.035 99.0512L176.035 99.0512L175.515 98.1969ZM134.04 123.437L133.52 122.583L133.52 122.583L134.04 123.437ZM121.563 123.437L122.083 122.583L122.083 122.583L121.563 123.437ZM80.0885 98.1969L80.6083 97.3427L80.6083 97.3427L80.0885 98.1969ZM76.6532 95.0469L75.8832 94.4089L75.3854 95.0096L75.847 95.6386L76.6532 95.0469ZM79.6545 92.4531L79.1347 91.5988L79.1347 91.5988L79.6545 92.4531ZM121.13 67.2131L121.649 68.0674L121.649 68.0674L121.13 67.2131ZM133.606 67.2131L133.086 68.0674L133.086 68.0674L133.606 67.2131ZM175.081 92.4531L174.561 93.3073L174.561 93.3073L175.081 92.4531ZM177.746 94.9651C176.979 95.8917 176.054 96.6986 174.995 97.3427L176.035 99.0512C177.285 98.2902 178.379 97.3364 179.287 96.2411L177.746 94.9651ZM174.995 97.3427L133.52 122.583L134.56 124.291L176.035 99.0512L174.995 97.3427ZM133.52 122.583C130.008 124.72 125.596 124.72 122.083 122.583L121.044 124.291C125.195 126.817 130.409 126.817 134.56 124.291L133.52 122.583ZM122.083 122.583L80.6083 97.3427L79.5686 99.0512L121.044 124.291L122.083 122.583ZM80.6083 97.3427C79.3602 96.5831 78.2974 95.5971 77.4594 94.4552L75.847 95.6386C76.8375 96.9881 78.0938 98.1537 79.5686 99.0512L80.6083 97.3427ZM77.4232 95.6849C78.191 94.7583 79.116 93.9514 80.1744 93.3073L79.1347 91.5988C77.8842 92.3598 76.7907 93.3136 75.8832 94.4089L77.4232 95.6849ZM80.1744 93.3073L121.649 68.0674L120.61 66.3589L79.1347 91.5988L80.1744 93.3073ZM121.649 68.0674C125.162 65.9297 129.574 65.9297 133.086 68.0674L134.126 66.3589C129.975 63.8325 124.761 63.8325 120.61 66.3589L121.649 68.0674ZM133.086 68.0674L174.561 93.3073L175.601 91.5988L134.126 66.3589L133.086 68.0674ZM174.561 93.3073C175.81 94.0669 176.872 95.0529 177.71 96.1948L179.323 95.0115C178.332 93.6619 177.076 92.4963 175.601 91.5988L174.561 93.3073Z" fill="white" fill-opacity="0.3" mask="url(#path-15-inside-4_12_359)"/>
<mask id="path-17-outside-5_12_359" maskUnits="userSpaceOnUse" x="52.5536" y="148.555" width="150.365" height="75.5086" fill="black">
<rect fill="white" x="52.5536" y="148.555" width="150.365" height="75.5086"/>
<path d="M173.016 200.218L170.977 192.858C170.977 192.858 112.065 231.24 66.4058 172.431C81.8553 215.858 141.41 223.608 173.016 200.218Z"/>
<path d="M160.56 185.439C160.56 185.439 94.594 223.303 62.8546 154.978C63.2981 161.329 64.5252 167.144 66.4058 172.431C112.065 231.24 170.977 192.858 170.977 192.858L173.016 200.218L178.296 216.134L187.493 191.852L196.689 167.57L148.3 176.775L160.56 185.439Z"/>
</mask>
<path d="M173.016 200.218L170.977 192.858C170.977 192.858 112.065 231.24 66.4058 172.431C81.8553 215.858 141.41 223.608 173.016 200.218Z" fill="#72A100"/>
<path d="M160.56 185.439C160.56 185.439 94.594 223.303 62.8546 154.978C63.2981 161.329 64.5252 167.144 66.4058 172.431C112.065 231.24 170.977 192.858 170.977 192.858L173.016 200.218L178.296 216.134L187.493 191.852L196.689 167.57L148.3 176.775L160.56 185.439Z" fill="#97C200"/>
<path d="M173.016 200.218L170.607 200.885C170.618 200.926 170.63 200.965 170.643 201.005L173.016 200.218ZM170.977 192.858L173.386 192.191C173.173 191.423 172.607 190.802 171.861 190.52C171.116 190.238 170.28 190.329 169.612 190.764L170.977 192.858ZM178.296 216.134C176.618 217.987 179.661 218.228 180.669 215.347C180.669 215.347 180.669 215.347 180.669 215.347C180.669 215.347 180.669 215.347 180.669 215.347C180.669 215.347 180.669 215.347 180.669 215.347C180.669 215.347 180.669 215.346 180.669 215.346C180.669 215.346 180.669 215.345 180.668 215.343C180.667 215.339 180.664 215.331 180.659 215.316C180.649 215.284 180.628 215.222 180.587 215.098C180.504 214.849 180.339 214.352 180.009 213.357C179.349 211.368 178.029 207.389 175.389 199.431L170.643 201.005C173.283 208.963 174.603 212.942 175.263 214.932C175.594 215.926 175.759 216.424 175.841 216.672C175.882 216.797 175.903 216.859 175.913 216.89C175.918 216.905 175.921 216.913 175.922 216.917C175.923 216.919 175.923 216.92 175.923 216.921C175.923 216.921 175.923 216.921 175.923 216.921C175.923 216.921 175.923 216.921 175.923 216.921C175.923 216.921 175.923 216.921 175.923 216.921C175.923 216.921 175.923 216.921 175.923 216.921C176.931 214.039 179.975 214.281 178.296 216.134ZM175.426 199.55L173.386 192.191L168.568 193.526L170.607 200.885L175.426 199.55ZM170.977 192.858C169.612 190.764 169.613 190.763 169.614 190.763C169.614 190.763 169.614 190.763 169.614 190.763C169.614 190.763 169.612 190.764 169.61 190.765C169.606 190.768 169.598 190.773 169.587 190.78C169.565 190.794 169.528 190.818 169.478 190.849C169.377 190.912 169.222 191.008 169.014 191.134C168.598 191.385 167.971 191.752 167.152 192.202C165.513 193.103 163.106 194.336 160.072 195.64C153.994 198.251 145.448 201.125 135.541 202.213C115.861 204.374 90.6141 199.534 68.3805 170.897L64.4311 173.964C87.8572 204.137 114.896 209.51 136.087 207.183C146.615 206.027 155.65 202.981 162.046 200.234C165.248 198.858 167.8 197.552 169.561 196.583C170.442 196.099 171.126 195.699 171.595 195.416C171.829 195.275 172.01 195.163 172.136 195.084C172.198 195.045 172.247 195.014 172.281 194.992C172.299 194.981 172.312 194.972 172.322 194.966C172.327 194.962 172.331 194.96 172.335 194.958C172.336 194.957 172.338 194.955 172.339 194.955C172.34 194.954 172.342 194.953 170.977 192.858ZM62.8546 154.978L67.3892 152.871C66.3733 150.684 63.9414 149.534 61.6064 150.136C59.2714 150.738 57.6987 152.92 57.8667 155.326L62.8546 154.978ZM160.56 185.439L163.049 189.775C164.53 188.926 165.474 187.379 165.555 185.674C165.635 183.969 164.84 182.341 163.446 181.356L160.56 185.439ZM148.3 176.775L147.366 171.863C145.395 172.238 143.839 173.755 143.414 175.715C142.989 177.676 143.776 179.701 145.415 180.859L148.3 176.775ZM196.689 167.57L201.365 169.341C202.006 167.648 201.682 165.741 200.519 164.355C199.355 162.969 197.533 162.32 195.755 162.658L196.689 167.57ZM178.296 216.134L173.551 217.708C174.217 219.717 176.076 221.089 178.192 221.133C180.308 221.177 182.223 219.884 182.972 217.905L178.296 216.134ZM173.016 200.218L177.762 198.643C177.257 197.122 176.054 195.935 174.526 195.451C172.998 194.967 171.33 195.245 170.042 196.199L173.016 200.218ZM187.493 191.852L192.169 193.623L192.169 193.623L187.493 191.852ZM66.4058 172.431L61.695 174.106L61.695 174.106L66.4058 172.431ZM58.3199 157.084C66.6233 174.959 77.3542 186.259 89.0384 192.908C100.691 199.538 112.901 201.32 123.836 200.825C134.742 200.332 144.508 197.572 151.499 194.975C155.008 193.671 157.854 192.394 159.84 191.434C160.833 190.954 161.614 190.552 162.156 190.264C162.428 190.12 162.64 190.004 162.79 189.921C162.865 189.88 162.924 189.846 162.967 189.822C162.989 189.81 163.007 189.8 163.02 189.792C163.027 189.788 163.033 189.785 163.038 189.782C163.04 189.781 163.043 189.779 163.044 189.778C163.047 189.777 163.049 189.775 160.56 185.439C158.071 181.103 158.073 181.102 158.075 181.101C158.075 181.101 158.076 181.1 158.077 181.1C158.077 181.099 158.077 181.099 158.076 181.1C158.074 181.101 158.067 181.105 158.057 181.11C158.037 181.122 158.001 181.142 157.95 181.17C157.849 181.226 157.686 181.315 157.467 181.431C157.028 181.665 156.36 182.009 155.488 182.431C153.742 183.275 151.187 184.423 148.016 185.601C141.646 187.968 132.936 190.403 123.384 190.835C113.859 191.266 103.626 189.703 93.9839 184.216C84.3728 178.748 74.9555 169.159 67.3892 152.871L58.3199 157.084ZM163.446 181.356L151.186 172.692L145.415 180.859L157.675 189.522L163.446 181.356ZM149.235 181.687L197.624 172.482L195.755 162.658L147.366 171.863L149.235 181.687ZM192.013 165.799L182.817 190.081L192.169 193.623L201.365 169.341L192.013 165.799ZM182.817 190.081L173.62 214.363L182.972 217.905L192.169 193.623L182.817 190.081ZM170.042 196.199C155.572 206.907 134.301 210.684 114.698 206.492C95.1938 202.32 78.1263 190.459 71.1166 170.755L61.695 174.106C70.1348 197.83 90.5694 211.557 112.607 216.27C134.545 220.962 158.854 216.919 175.991 204.237L170.042 196.199ZM71.1166 170.755C69.3954 165.916 68.2559 160.55 67.8424 154.629L57.8667 155.326C58.3404 162.109 59.6551 168.372 61.695 174.106L71.1166 170.755ZM168.271 201.792L173.551 217.708L183.042 214.559L177.762 198.643L168.271 201.792Z" fill="#011F37" mask="url(#path-17-outside-5_12_359)"/>
</svg>
